

    Paris.Texas.1984.SWESUB.DVDRiP.XViD.AC-3(5.1).avi-Zen_Bud

Format                                   : AVI
File size                                : 1.41 GiB
Duration                                 : 2h 19mn
Overall bit rate                         : 1 452 Kbps

Video

Format                                   : MPEG-4 Visual
Format settings, Matrix                  : Default (H.263)
Codec ID                                 : XVID
Duration                                 : 2h 19mn
Bit rate                                 : 1 057 Kbps
Width                                    : 716 pixels
Height                                   : 568 pixels
Display aspect ratio                     : 16:9
Frame rate                               : 25.000 fps
Color space                              : YUV
Bits/(Pixel*Frame)                       : 0.104
Stream size                              : 1.03 GiB (73%)
Writing library                          : XviD 1.1.2 

Audio

Format                                   : AC-3
Format settings, Endianness              : Big
Codec ID                                 : 2000
Duration                                 : 2h 19mn
Bit rate mode                            : Constant
Bit rate                                 : 384 Kbps
Channel(s)                               : 6 channels
Channel positions                        : Front: L C R, Side: L R, LFE
Sampling rate                            : 48.0 KHz
Bit depth                                : 16 bits
Compression mode                         : Lossy
Stream size                              : 382 MiB (26%)

----------------------------------------------------------------------
Drama |                      Ratings: 8.0/10
                                                         
http://www.imdb.com/title/tt0087884/

----------------------------------------------------------------------
A man wanders out of the desert not knowing who he is. His brother finds him, 
and helps to pull his memory back of the life he led before he walked out on 
his wife and son four years before...
